<?xml version="1.0" encoding="UTF-8"?><svg id="a" xmlns="http://www.w3.org/2000/svg" width="128" height="128" viewBox="0 0 128 128"><defs><style>.b{fill:#fad45b;}.c{fill:#a4b9b7;}.d{fill:#a4b8b7;}.e{fill:#a3b7b6;}.f{fill:#253437;}.g{fill:#96bfbb;}.h{fill:#a7bab8;}.i{fill:#2b251d;}.j{fill:#211e27;}.k{fill:#9fb7b6;}.l{fill:#a2b8b7;}.m{fill:#a1b7b6;}.n{fill:#fdfefd;}.o{fill:#e7a574;}.p{fill:#211e28;}.q{fill:#eef5ef;}.r{fill:#a4b8b6;}.s{fill:#f6f9f2;}.t{fill:#f2f1ec;}.u{fill:#fbe695;}.v{fill:#fcfefc;}.w{fill:#263438;}.x{fill:#fad45a;}.y{fill:#9db5b5;}.z{fill:#a1b9b6;}.aa{fill:#a9bdba;}.ab{fill:#a5b9b7;}.ac{fill:#2d242c;}.ad{fill:#2e252c;}.ae{fill:#2d271d;}.af{fill:#f0f4ee;}.ag{fill:#9db5b6;}.ah{fill:#201e28;}.ai{fill:#f2f1eb;}.aj{fill:#a8bbb9;}.ak{fill:#1f1e28;}.al{fill:#edf4ef;}.am{fill:#a2bab7;}.an{fill:#a1bab6;}.ao{fill:#a5bab8;}.ap{fill:#f9d55d;}</style></defs><path class="g" d="M167.31-64.25h-36.25c-3.52,5.47-6.26,11.73-10.25,16.75-1.93,2.43-4.88,4.74-7.75,7-1.11.87-2.16,2.28-3.62,2.75-.31-.16.8-3.75.88-4.25.55-3.57.81-6.87,2.25-10.25,1.7-3.99,5.03-8.06,7-12h-34.75l7.12,20-42.25,10-10.38-30H3.06c-3.48,5.5-6.22,11.72-10.25,16.75-1.94,2.42-4.88,4.74-7.75,7-1.11.87-2.16,2.28-3.62,2.75-.31-.16.8-3.75.88-4.25.55-3.59.81-6.86,2.25-10.25,1.71-4.02,5.02-8.04,7-12h-34.75l7.5,19.62-28.25,7.12V-15c1.24-1.02,2.58-5.51,4-5.5-.42-.54-.14-.44,0-.75.34-.75.48-.47.5-.5.39-.64.48-.47.5-.5.02-.03-.19-.02.25-.75.02-.04-.1.02.25-.5.4-.61.48-.47.5-.5.18-.22-.64-.06.25-.75.04-.03-.09-.45.12-.5l.38.25c.09-6.48,13.21,1.54,8,4.75-.03.02.08.28-.5.25.64.78-.15.81-.25,1-.08.16-.16.35-.25.5-.39.67-.48.47-.5.5-.08.15-.12.27-.25.5-.02.03.06.14-.25.75-.06.13-.06.45-.25.75-.16.25-.08.34-.5.25v.25l-12,20v33.25c1.06-.2.9-2.05,1.12-2.25.33-.3,7.77-1.3,8.88-1.38l18.25,49.25-28.25,6.88v22.75c1.23-1,2.54-5.6,4.25-5.5-.68-.28-.42-.32-.25-.75.31-.76.48-.46.5-.5.07-.13.12-.27.25-.5.22-.39.4-.58.5-.75.07-.13-.14.07.25-.5.4-.58.48-.47.5-.5.18-.23-.64-.06.25-.75.04-.03-.09-.45.12-.5l.38.25c-.03-6.47,13.2,1.57,8,4.75-.03.02.08.28-.5.25.64.78-.15.81-.25,1-.08.16-.16.34-.25.5-.38.68-.48.47-.5.5-.09.17-.14.3-.25.5-.03.05.08.1-.25.75-.06.12-.06.45-.25.75-.16.26-.09.33-.5.25v.5l-12,19.75v33.25c1.04,0,.9-2.05,1.12-2.25.33-.3,7.77-1.33,8.88-1.38l10.75,29.62H-8.44l10.75-18.62c.48-.57,1.1-1.67,2-1.62-.69-.28-.41-.33-.25-.75.3-.78.46-.44.5-.5.39-.67.48-.47.5-.5.02-.03-.18-.02.25-.75.03-.04-.1.02.25-.5.4-.61.48-.47.5-.5.18-.22-.64-.06.25-.75.04-.03-.09-.45.12-.5l.38.25c-.18-5.52,9.07-.3,9.25,2.12.12,1.69-1.42,2.46-1.5,2.62-.16.32-.24.23-.25.25-.03.05,0,.2-.25.75-.06.13-.13.48-.25.75-.1.23.18.62-.5.5.05.07-.04.36,0,.5.05.15.02.55,0,.75-.04.37-.47,1.18-.75,1.25-.5.13-.62-.42-1-.5l.5,1.12-9,14.62h36l-6.12-20.25c1.32.2,4.75-1.25,5.75-1,.49.12.92,1.85,2.5,1.5,1.11-.25,1.36-2.38,1.5-2.5.23-.19,5.46-1.31,5.75-1.25.83.19,2.66,4.28,4.25-1.25,1.45.31,7.55-2.11,8.25-2,.35.05.9,1.52,2.5,1.25,1.68-.29,1.51-2.54,1.75-2.75.33-.29,7.65-1.21,8.75-1.5l10.88,29.75h34.75c1.56-2.2,11.21-20.26,12.5-20.25-.14-.41-.47-.32,0-.75.32-.29.28-.27.75-.25-.52-.58,0-.71,0-.75.18-.95.31-.41.5-.75.12-.21-.2.11.25-.5.38-.53.47-.47.5-.5.06-.07-.73-.84.25-.75l.5-.25c.04-6.43,13.23,1.53,8,4.75-.03.02.08.28-.5.25.63.79-.11.77-.25,1-.24.41-.48.21-.5.25-.09.16.39.35.25.62-.12.23-.48.09-.5.12-.05.1.05.4,0,.5-.31.62-.48.71-.5.75-.38.7-.48.47-.5.5-.1.18.39.09,0,.75-2.98,5.06-6.46,9.89-9,15.25h35.75l-6.5-19.88c.12-.29,5.75-1.47,6.12-1.38.49.12.92,1.85,2.5,1.5,1.11-.25,1.36-2.38,1.5-2.5.23-.19,5.46-1.3,5.75-1.25,1.01.16,2.8,4.62,4.25-1.25,1.54.31,7.42-2.12,8.25-2,.3.04,1.8,2.22,3.12,1v-32.75c-2.66,3.65-4.49,7.77-7.25,11.25-1.93,2.42-4.88,4.75-7.75,7-1.08.85-2.13,2.31-3.62,2.75-.33-.17.8-3.76.88-4.25.69-4.45.78-6.32,2.5-10.25.23-.52.34-1.54.75-2.12l14.5-24.12v-23l-14.75,2.88-16.75-49.5c.11-.3,5.76-1.47,6.12-1.38,1.01.26.99,3.04,3.62.38.26-.26.17-1.21.38-1.38.23-.19,5.46-1.3,5.75-1.25,1,.17,2.91,4.49,4.25-1.25,1.45.31,7.55-2.11,8.25-2,.3.05,1.79,2.22,3.12,1V5.25c-2.72,3.33-4.39,7.92-7,11.25-2.12,2.7-5.33,4.87-8,7-.5.4-3.01,3.11-3.62,2.75-.11-1.39.69-3.01.88-4.25.56-3.65.74-6.78,2.25-10.25.58-1.34,1.69-2.53,2-3.12,4.18-7.9,8.83-15.52,13.5-23.12v-23l-14.75,2.88-10-29.62ZM46.31,22c.56-3.59.8-6.85,2.25-10.25,2.65-6.21,13.69-25.2,17.75-30.62.43-.58,1.15-1.67,2-1.62-.68-.28-.42-.32-.25-.75.31-.76.48-.47.5-.5.09-.17.15-.31.25-.5.08-.15-.26-.35-.25-.38.08-.13.67-.25.75-.38.03-.04-.18.07.25-.5.37-.5.47-.46.5-.5.2-.23-.73-.17.25-.75.02-.01,0-.39.5-.25.05-6.31,12.92,1.1,8,4.75-.04.03-.02.4-.5.25l.25.62c-.08.21-.49.35-.5.38-.08.19-.18.31-.25.5-.3.76-.49.47-.5.5-.09.19-.16.33-.25.5-.03.05.14.03-.25.75-.05.09-.09.46-.25.75-.24.42-.48.21-.5.25-5.56,9.73-12.53,23.85-19.25,32.25-1.93,2.42-4.89,4.73-7.75,7-1.11.88-2.16,2.27-3.62,2.75-.33-.17.8-3.76.88-4.25ZM-12.57,159.75l-18.88-51.88c.12-.3,5.98-1.51,6.38-1.38.12.04.78,1.45,1.75,1.5,1.89.09,1.67-2.1,2.25-2.5.24-.17,5.4-1.09,5.75-1,.23.06,1,1.18,1.25,1.25,2.79.8,2.04-2.29,2.75-2.75.36-.23,7.83-2.03,8.25-2,1.13.08,1.47,2.31,3.88-.12.11-.12-.28-.9.38-1.38.29-.21,6.64-1.49,7-1.5.33-.01.67,0,1,0,.29.24.43.57.62.88,4.67,7.09,9,23.78,13.5,32.5,1.21,2.34.84,2.42,3.25,2.5l5.5,12.75-44.62,13.12ZM4.06,42.75c.31-.76.48-.46.5-.5.07-.13.12-.27.25-.5.23-.41.38-.55.5-.75.07-.12-.19.09.25-.5.38-.51.46-.46.5-.5.06-.07-.73-.84.25-.75l.5-.25c.04-6.16,12.98,1.06,8,4.75-.04.03-.02.4-.5.25.64.8-.2.88-.25,1-.07.18-.17.32-.25.5-.34.74-.48.47-.5.5-.09.18-.06.21-.25.5-.06.09.29-.01-.25.75-.05.07-.05.61-.25.75-.72.5-.56.07-1,0,.4.93.12,1.31-.25,2.12-3.07,6.72-13.98,24.71-18.5,30.38-.1.12.26.36.25.38-1.67,1.97-5.81,4.89-8,6.62-1.11.88-2.16,2.27-3.62,2.75-.33-.17.8-3.76.88-4.25.56-3.61.87-6.97,2.25-10.25,2.58-6.12,13.74-25.27,17.75-30.62.43-.58,1.15-1.67,2-1.62-.68-.28-.42-.32-.25-.75ZM-12.57,31.75L-31.44-20.12c.12-.3,6.01-1.5,6.38-1.38.12.04.72,1.6,2,1.5,1.53-.12,1.51-2.17,2-2.5.24-.16,5.4-1.09,5.75-1,.23.06,1,1.18,1.25,1.25,2.79.8,2.04-2.29,2.75-2.75.36-.23,7.83-2.03,8.25-2,1.13.08,1.47,2.31,3.88-.12.11-.12-.28-.9.38-1.38.29-.21,6.64-1.5,7-1.5.52,0,1.02-.15,1.38.38C14.63-19.31,18.11-5.37,23.81,4.38c1.77,3.03,1.64.25,2.75,1.5l5.5,12.75L-12.57,31.75ZM78.81,107.75s-.02.4-.5.25c.64.8-.2.88-.25,1-.07.18-.17.32-.25.5-.34.74-.48.47-.5.5-.09.18-.06.21-.25.5-.06.09.3-.02-.25.75-.05.07-.05.61-.25.75-.69.48-.51.06-1,0,.45.98-.07,1.79-.5,2.62-4.05,7.84-12.98,23.29-18.25,29.88-1.93,2.42-4.89,4.74-7.75,7-1.11.88-2.16,2.27-3.62,2.75-.33-.17.8-3.76.88-4.25.56-3.59.81-6.85,2.25-10.25,2.85-6.75,13.37-24.47,17.75-30.62.38-.53.87-1.01,1.12-1.62.21,0,.42,0,.62,0-.42-.54-.14-.44,0-.75.34-.75.48-.47.5-.5.39-.64.48-.47.5-.5.02-.04-.22,0,.25-.75.03-.04-.15.06.25-.5.39-.55.46-.46.5-.5.06-.07-.73-.84.25-.75l.5-.25c.12-6.21,12.95,1.08,8,4.75ZM49.68,93.75l-17.12-49.88c.12-.29,5.75-1.47,6.12-1.38.45.12.86,1.69,2.25,1.5,1.22-.17,1.54-2.21,2-2.5.24-.15,5.22-1.31,5.5-1.25.83.19,2.66,4.28,4.25-1.25,1.42.31,7.59-2.11,8.25-2,.35.06.92,1.54,2.5,1.25,1.54-.28,1.6-2.62,1.75-2.75.29-.25,7.07-1.48,7.5-1.5.37-.01,1.11-.09,1.38.12l18.25,49.25-42.62,10.38ZM115.43,159.75l-18.88-51.88c.12-.3,6.01-1.5,6.38-1.38.12.04.72,1.6,2,1.5,1.53-.12,1.51-2.17,2-2.5.24-.17,5.4-1.09,5.75-1,.23.06,1,1.18,1.25,1.25,2.79.8,2.04-2.29,2.75-2.75.36-.23,7.83-2.03,8.25-2,1.13.08,1.47,2.31,3.88-.12.11-.12-.28-.9.38-1.38.29-.21,6.64-1.5,7-1.5.52,0,1.02-.15,1.38.38,2.09,3.88,13.47,35.27,15.38,35.62.49.09.76-1.1,1.62-.12l5.5,12.75-44.62,13.12ZM132.06,42.75c.31-.76.48-.46.5-.5.07-.13.12-.27.25-.5.22-.39.4-.58.5-.75.07-.13-.14.07.25-.5.4-.58.48-.47.5-.5.18-.23-.64-.06.25-.75.04-.03-.09-.45.12-.5l.38.25c.13-6.19,12.91,1.11,8,4.75-.04.03-.02.4-.5.25.64.8-.2.88-.25,1-.07.18-.17.32-.25.5-.34.74-.49.47-.5.5-.09.2-.14.3-.25.5-.02.03.1.09-.25.75-.06.11-.04.46-.25.75-.16.22-.07.35-.5.25v.5l-18,30.62c-.28.46-.95.75-1.25,1.12-1.94,2.42-4.89,4.74-7.75,7-1.11.88-2.16,2.27-3.62,2.75-.33-.17.8-3.76.88-4.25.56-3.58.82-6.86,2.25-10.25,2.57-6.1,13.75-25.28,17.75-30.62.43-.58,1.15-1.67,2-1.62-.68-.28-.42-.32-.25-.75ZM115.43,31.75l-18.88-51.88c.12-.3,5.98-1.51,6.38-1.38.12.04.73,1.56,2,1.5,1.64-.08,1.43-2.11,2-2.5.23-.16,5.22-1.3,5.5-1.25.22.04,1.23,1.42,1.5,1.5,2.79.8,2.04-2.29,2.75-2.75.36-.23,7.83-2.03,8.25-2,1.13.08,1.47,2.31,3.88-.12.11-.12-.28-.9.38-1.38.29-.21,6.64-1.5,7-1.5.52,0,1.02-.15,1.38.38,5.08,10.3,8.55,24.27,14.25,34,1.77,3.03,1.6.26,2.75,1.5l5.5,12.75-44.62,13.12Z"/><path class="u" d="M115.31,77c.96.54,2.25,1.39,3.25,2,2.47-3.46,17.27-31.65,19.12-31.75.25-.01,1.97,1.3,2.38,1.5v-.5c-2-1-3.76-2.49-5.75-3.5l-19,32.25Z"/><path class="b" d="M118.56,79c.74.45,1.29,1.25,2.25,1.5.3-.38.97-.67,1.25-1.12l18-30.62c-.41-.2-2.12-1.51-2.38-1.5-1.85.1-16.66,28.29-19.12,31.75Z"/><path class="ap" d="M130.31,45.13c-4,5.35-15.18,24.52-17.75,30.62.77.55,2,.82,2.75,1.25l19-32.25c-.38-.19-1.83-1.24-2-1.25-.85-.05-1.57,1.05-2,1.62Z"/><path class="v" d="M115.31,77c-.75-.43-1.98-.7-2.75-1.25-1.43,3.39-1.69,6.67-2.25,10.25l2.75,1.5c2.86-2.26,5.81-4.58,7.75-7-.96-.25-1.51-1.05-2.25-1.5-1-.61-2.29-1.46-3.25-2Z"/><path class="w" d="M109.43,90.25c1.47-.48,2.52-1.87,3.62-2.75l-2.75-1.5c-.08.49-1.2,4.08-.88,4.25Z"/><path class="n" d="M23.31,131.38c-4.5-8.72-8.83-25.41-13.5-32.5-.2-.3-.34-.64-.62-.88-.33,0-.67-.01-1,0-.36.01-6.71,1.29-7,1.5-.65.47-.26,1.26-.38,1.38-2.41,2.43-2.75.2-3.88.12-.42-.03-7.89,1.77-8.25,2-.71.46.04,3.55-2.75,2.75-.25-.07-1.02-1.19-1.25-1.25-.35-.09-5.51.83-5.75,1-.58.4-.36,2.59-2.25,2.5-.97-.05-1.63-1.46-1.75-1.5-.4-.14-6.25,1.07-6.38,1.38l18.88,51.88,44.62-13.12-5.5-12.75c-2.41-.08-2.04-.16-3.25-2.5ZM-24.07,113.5c9.68-3.08,20.98-4.04,30.75-7.25.98-.17,1.23.33.5,1l-32.88,7.12c.16-.57,1.11-.71,1.62-.88ZM-24.44,117.88l1.12-.88,31.25-7.25c.43.02.6-.03.88.38.1.28-.44.55-.62.62-5.07,2.15-22.73,5.54-29,6.75-1.15.22-2.44.48-3.62.38ZM-23.44,120.63c-.05-.5.8-.78,1.12-.88,10.01-2.94,21.48-3.9,31.5-7.25,1.88.42.39.98-.5,1.25-7.18,2.18-23.33,6.22-30.5,7-.58.06-1.26.42-1.62-.12ZM-21.82,122.75l31.75-7.25c.36,0,.83-.09,1.12.12.22.27-.66.78-.88.88-5,2.13-22.81,5.58-29,6.75-.91.17-5.13,1.11-3-.5ZM-21.69,126.13l33.12-7.88c1.81.09.42.94-.5,1.25-6.76,2.3-19.88,4.82-27.25,6.25-.55.11-5.4,1.15-5.38.38ZM12.43,121c.44,0,.6-.01.88.38l-.62.62-33.12,7.38,32.88-8.38ZM-18.32,131.25c5.35-1.83,25.93-6.81,31.25-7.25.49-.04,1,.03,1.5,0-.27.91-2.27,1.23-3.25,1.5-6.81,1.85-22.65,6.22-29,6.75-.57.05-1.34.07-1.88-.12.07-.46.99-.74,1.38-.88ZM15.18,126.5c.13.03.45.41.38.62-11.13,3.04-22.59,5.77-34,8l33.62-8.62ZM-17.69,137.88c0-.55.71-.72,1.12-.88,2.77-1.03,30.27-7.54,32.25-7.5.37,0,.93-.18.88.38,0,.18-1.58.78-1.88.88-5.65,1.83-25.38,6.85-30.75,7.25-.49.04-1.17.07-1.62-.12ZM-16.07,140l33-7.75c.26.02.7-.11.88.12l-.88.88-33.38,7.62.38-.88ZM13.93,137c-7.77,2.14-18.17,4.87-26,6.25-.46.08-3.32.64-3.38.12-.07-.44.58-.51.88-.62,3.49-1.36,28.91-7.58,32.25-7.75.33-.02.67.01,1,0,1,.53-4.34,1.89-4.75,2Z"/><path class="c" d="M15.18,126.5l-33.62,8.62c11.41-2.23,22.87-4.96,34-8,.08-.21-.25-.59-.38-.62Z"/><path class="c" d="M-17.82,132.25c6.35-.53,22.19-4.9,29-6.75.98-.27,2.98-.59,3.25-1.5-.5.03-1.01-.04-1.5,0-5.32.44-25.9,5.42-31.25,7.25-.38.13-1.3.41-1.38.88.54.19,1.31.17,1.88.12Z"/><path class="c" d="M13.31,121.38c-.28-.39-.44-.37-.88-.38l-32.88,8.38,33.12-7.38.62-.62Z"/><path class="d" d="M8.68,113.75c.89-.27,2.38-.83.5-1.25-10.02,3.35-21.49,4.31-31.5,7.25-.33.1-1.18.37-1.12.88.37.54,1.05.19,1.62.12,7.17-.78,23.32-4.82,30.5-7Z"/><path class="ag" d="M6.68,106.25c-9.77,3.21-21.07,4.17-30.75,7.25-.51.16-1.47.3-1.62.88l32.88-7.12c.73-.67.48-1.17-.5-1Z"/><path class="c" d="M10.93,119.5c.92-.31,2.31-1.16.5-1.25l-33.12,7.88c-.03.77,4.83-.27,5.38-.38,7.37-1.43,20.49-3.95,27.25-6.25Z"/><path class="c" d="M10.18,116.5c.21-.09,1.09-.61.88-.88-.29-.22-.77-.13-1.12-.12l-31.75,7.25c-2.13,1.61,2.09.67,3,.5,6.19-1.17,24-4.62,29-6.75Z"/><path class="m" d="M8.18,110.75c.19-.08.72-.35.62-.62-.28-.4-.45-.35-.88-.38l-31.25,7.25-1.12.88c1.18.11,2.47-.15,3.62-.38,6.27-1.21,23.93-4.6,29-6.75Z"/><path class="n" d="M151.81,4.38c-5.7-9.73-9.17-23.7-14.25-34-.35-.52-.85-.38-1.38-.38-.36,0-6.71,1.29-7,1.5-.65.47-.26,1.26-.38,1.38-2.41,2.43-2.75.2-3.88.12-.42-.03-7.89,1.77-8.25,2-.71.46.04,3.55-2.75,2.75-.27-.08-1.28-1.46-1.5-1.5-.28-.05-5.27,1.09-5.5,1.25-.57.39-.36,2.42-2,2.5-1.27.06-1.88-1.46-2-1.5-.4-.14-6.25,1.07-6.38,1.38l18.88,51.88,44.62-13.12-5.5-12.75c-1.15-1.24-.98,1.53-2.75-1.5ZM102.31-13.62c.41-.61,1.9-.92,2.62-1.12,5.56-1.56,25.1-6.86,29.75-7,1.18-.04,1.25.51.25,1-3.32,1.64-24.61,6.09-29.5,7-.42.08-3.03.71-3.12.12ZM103.56-10.12c0-.55.71-.72,1.12-.88,9.07-3.36,21.87-3.83,31.25-7.25l.88.38c.1.28-.44.55-.62.62-2.88,1.22-28.04,7.04-31.25,7.25-.42.03-1.01.08-1.38-.12ZM104.56-7.37c-.03-.52.75-.76,1.12-.88,9.76-3.05,21.65-3.78,31.5-7.25,1.89.44.38.97-.5,1.25-7.16,2.33-18.15,4.42-25.75,6-.6.12-6.28,1.34-6.38.88ZM106.18-5.25l31.75-7.25c.36,0,.83-.09,1.12.12.22.27-.66.78-.88.88-4.99,2.13-22.85,5.61-29,6.75-.92.17-5.13,1.12-3-.5ZM106.31-1.87l33.12-7.88c1.82.09.41.93-.5,1.25-6.41,2.23-18.93,4.55-26,6-.65.13-6.65,1.42-6.62.62ZM107.56,1.38l32.88-8.38c.44,0,.6-.01.88.38.09.29-.42.53-.62.62-4.36,1.99-25.08,6.27-30.75,7.25-.73.13-1.63.31-2.38.12ZM108.31,3.88l32.38-7.88c.49-.04,1,.03,1.5,0,1.02.49-2.72,1.42-3,1.5-6.8,1.82-22.72,6.28-29,6.75-.35.03-1.89.1-1.88-.38ZM143.18-1.5c.13.03.45.41.38.62-11.13,3.04-22.58,5.81-34,8L143.18-1.5ZM110.31,9.88c0-.34.88-.78,1.12-.88,2.46-.94,30.52-7.54,32.25-7.5.37,0,.93-.18.88.38,0,.18-1.57.77-1.88.88-6.95,2.31-22.22,5.88-29.5,7-.51.08-2.63.44-2.88.12ZM111.93,12l33-7.75c.26.02.7-.11.88.12l-.88.88-33.38,7.62.38-.88ZM144.93,8.25c-7.23,2.38-22.53,6.14-30,7.25-.36.05-2.29.39-2.38-.12-.07-.44.58-.51.88-.62,3.49-1.39,28.77-7.54,32.25-7.75.35-.02,1.18-.19,1.12.38,0,.18-1.58.78-1.88.88Z"/><path class="z" d="M145.68,7c-3.48.21-28.76,6.36-32.25,7.75-.29.12-.95.18-.88.62.09.51,2.01.18,2.38.12,7.47-1.11,22.77-4.87,30-7.25.3-.1,1.87-.7,1.88-.88.05-.57-.78-.4-1.12-.38Z"/><path class="ao" d="M143.18-1.5l-33.62,8.62c11.42-2.19,22.87-4.96,34-8,.08-.21-.25-.59-.38-.62Z"/><path class="c" d="M142.68,2.75c.3-.1,1.87-.69,1.88-.88.06-.56-.51-.37-.88-.38-1.73-.04-29.79,6.56-32.25,7.5-.25.09-1.12.53-1.12.88.24.32,2.37-.05,2.88-.12,7.28-1.12,22.55-4.69,29.5-7Z"/><path class="c" d="M110.18,4.25c6.28-.47,22.2-4.93,29-6.75.28-.08,4.02-1.01,3-1.5-.5.03-1.01-.04-1.5,0l-32.38,7.88c-.02.47,1.52.4,1.88.38Z"/><path class="e" d="M145.81,4.38c-.18-.23-.61-.11-.88-.12l-33,7.75-.38.88,33.38-7.62.88-.88Z"/><path class="ab" d="M140.68-6c.21-.09.72-.34.62-.62-.28-.39-.44-.37-.88-.38L107.56,1.38c.74.18,1.64,0,2.38-.12,5.67-.98,26.39-5.26,30.75-7.25Z"/><path class="n" d="M23.81,4.38c-5.7-9.74-9.18-23.69-14.25-34-.35-.52-.85-.38-1.38-.38-.36,0-6.71,1.29-7,1.5-.65.47-.26,1.26-.38,1.38-2.41,2.43-2.75.2-3.88.12-.42-.03-7.89,1.77-8.25,2-.71.46.04,3.55-2.75,2.75-.25-.07-1.02-1.19-1.25-1.25-.35-.09-5.51.84-5.75,1-.49.33-.47,2.38-2,2.5-1.28.1-1.88-1.46-2-1.5-.36-.12-6.25,1.07-6.38,1.38L-12.57,31.75l44.62-13.12-5.5-12.75c-1.11-1.25-.98,1.53-2.75-1.5ZM-24.07-14.5c9.68-3.08,20.98-4.05,30.75-7.25.98-.17,1.23.33.5,1l-32.88,7.12c.16-.57,1.11-.71,1.62-.88ZM-23.57-11l31.5-7.25c.43.02.6-.03.88.38C-1.95-14.75-13.33-12.13-24.44-10.12l.88-.88ZM-23.44-7.37c-.03-.52.75-.76,1.12-.88C-12.53-11.3-.68-12.04,9.18-15.5c2.31.6-.71,1.27-1.5,1.5C.13-11.85-9.31-9.86-17.07-8.25c-.6.12-6.28,1.34-6.38.88ZM-22.69-4.62C-12.09-7.68-.85-9.59,9.93-12.5c3.03.31-1.91,1.53-2.75,1.75C-.69-8.65-10.85-6.21-18.82-4.75c-.55.1-3.84.78-3.88.12ZM-21.69-1.87L11.43-9.75c1.82.09.41.93-.5,1.25C4.37-6.22-9.09-3.66-16.32-2.25c-.55.11-5.4,1.15-5.38.38ZM12.43-7c.44,0,.6-.01.88.38l-.62.62L-20.44,1.38,12.43-7ZM-19.69,4.13c.08-.47.99-.74,1.38-.88C-13.37,1.52,8.03-3.63,12.93-4c.24-.02,1.93-.27,1.5.5-1.08.32-2.17.71-3.25,1C3.39-.41-10.2,3.32-17.82,4.25c-.21.03-1.85.24-1.88-.12ZM15.18-1.5c.13.03.45.41.38.62C4.43,2.18-7.04,4.87-18.44,7.13L15.18-1.5ZM-16.32,9C-13.07,7.85,13.32,1.45,15.68,1.5c.37,0,.93-.18.88.38C5.36,4.98-6.2,7.93-17.69,9.88c.05-.67.83-.68,1.38-.88ZM-16.07,12L16.68,4.25c.49,0,.8-.11,1.12.38C6.67,7.81-4.99,10.43-16.44,12.88l.38-.88ZM16.93,8.25c-6.75,2.22-23.15,6.37-30,7.25-.31.04-2.33.31-2.38-.12-.07-.44.58-.51.88-.62,3.5-1.39,28.76-7.54,32.25-7.75.35-.02,1.18-.19,1.12.38,0,.18-1.58.78-1.88.88Z"/><path class="an" d="M17.68,7c-3.49.21-28.75,6.36-32.25,7.75-.29.12-.95.18-.88.62.05.43,2.06.16,2.38.12,6.85-.88,23.25-5.03,30-7.25.3-.1,1.87-.7,1.88-.88.05-.57-.78-.4-1.12-.38Z"/><path class="c" d="M15.18-1.5L-18.44,7.13C-7.04,4.87,4.43,2.18,15.56-.87c.08-.21-.25-.59-.38-.62Z"/><path class="c" d="M11.18-2.5c1.08-.29,2.17-.68,3.25-1,.43-.77-1.26-.52-1.5-.5-4.9.37-26.3,5.52-31.25,7.25-.39.14-1.3.41-1.38.88.02.37,1.67.15,1.88.12C-10.2,3.32,3.39-.41,11.18-2.5Z"/><path class="c" d="M15.68,1.5c-2.37-.05-28.75,6.34-32,7.5-.54.19-1.33.21-1.38.88C-6.2,7.93,5.36,4.98,16.56,1.88c.06-.56-.51-.37-.88-.38Z"/><path class="e" d="M16.68,4.25l-32.75,7.75-.38.88C-4.99,10.43,6.67,7.81,17.81,4.63c-.32-.48-.64-.37-1.12-.38Z"/><path class="c" d="M13.31-6.62c-.28-.39-.44-.37-.88-.38L-20.44,1.38,12.68-6l.62-.62Z"/><path class="n" d="M152.93,134c-1.91-.35-13.28-31.75-15.38-35.62-.35-.52-.85-.38-1.38-.38-.36,0-6.71,1.29-7,1.5-.65.47-.26,1.26-.38,1.38-2.41,2.43-2.75.2-3.88.12-.42-.03-7.89,1.77-8.25,2-.71.46.04,3.55-2.75,2.75-.25-.07-1.02-1.19-1.25-1.25-.35-.09-5.51.83-5.75,1-.49.33-.47,2.38-2,2.5-1.28.1-1.88-1.46-2-1.5-.36-.12-6.25,1.07-6.38,1.38l18.88,51.88,44.62-13.12-5.5-12.75c-.87-.97-1.13.22-1.62.12ZM104.93,113.25c9.76-2.71,20.02-4.09,29.75-7,.98-.17,1.23.33.5,1l-32.88,7.12c.41-.61,1.91-.93,2.62-1.12ZM104.68,117c9.11-3.37,21.84-3.83,31.25-7.25l.88.38c-10.75,3.1-22.2,5.8-33.25,7.75,0-.55.71-.72,1.12-.88ZM104.56,120.63c.03-.64.87-.72,1.38-.88,9.81-3.03,21.38-3.86,31.25-7.25,2.31.6-.71,1.27-1.5,1.5-7.45,2.16-17.06,4.16-24.75,5.75-.6.12-6.28,1.34-6.38.88ZM106.18,122.75l31.75-7.25c.36,0,.83-.09,1.12.12,0,.57-.68.69-1.12.88-5.6,2.29-22.14,5.51-28.75,6.75-.89.17-5.15,1.09-3-.5ZM106.31,126.13l33.12-7.88c1.89.15.24,1-.5,1.25-6.78,2.31-19.87,4.81-27.25,6.25-.55.11-5.4,1.15-5.38.38ZM107.56,129.38l32.88-8.38c.44,0,.6-.01.88.38.09.29-.42.53-.62.62-4.27,1.95-25.2,6.31-30.75,7.25-.74.12-1.63.31-2.38.12ZM109.68,131.25c5.92-1.9,25.51-6.78,31.25-7.25.49-.04,1,.03,1.5,0-.28.92-2.26,1.23-3.25,1.5-6.8,1.87-22.63,6.22-29,6.75-.57.05-1.34.07-1.88-.12.06-.45,1.01-.76,1.38-.88ZM143.18,126.5c.13.03.45.41.38.62-11.13,3.05-22.59,5.8-34,8l33.62-8.62ZM110.31,137.88c0-.34.88-.78,1.12-.88,2.5-.95,30.47-7.54,32.25-7.5.37,0,.93-.18.88.38,0,.18-1.57.77-1.88.88-7.09,2.36-22.04,5.8-29.5,7-.49.08-2.63.44-2.88.12ZM112.93,139.75c3.57-1.09,29.98-7.62,32-7.5,1.18.07,1.29.32.25,1l-33.62,7.62c-.34-.57,1.12-1.05,1.38-1.12ZM145.93,136c-4.29,1.89-25.73,6.72-31,7.5-.36.05-2.29.39-2.38-.12-.07-.44.58-.51.88-.62,3.17-1.26,29.24-7.61,32.25-7.75.35-.02.84-.08,1.12.12.22.27-.66.78-.88.88Z"/><path class="c" d="M143.18,126.5l-33.62,8.62c11.41-2.2,22.87-4.95,34-8,.08-.21-.25-.59-.38-.62Z"/><path class="c" d="M140.68,122c.21-.09.72-.34.62-.62-.28-.39-.44-.37-.88-.38l-32.88,8.38c.75.19,1.64,0,2.38-.12,5.55-.94,26.48-5.3,30.75-7.25Z"/><path class="c" d="M110.18,132.25c6.37-.53,22.2-4.88,29-6.75.99-.27,2.97-.58,3.25-1.5-.5.03-1.01-.04-1.5,0-5.74.47-25.33,5.35-31.25,7.25-.36.12-1.31.42-1.38.88.54.19,1.31.17,1.88.12Z"/><path class="c" d="M138.93,119.5c.74-.25,2.39-1.1.5-1.25l-33.12,7.88c-.03.77,4.83-.27,5.38-.38,7.38-1.44,20.47-3.94,27.25-6.25Z"/><path class="y" d="M134.68,106.25c-9.73,2.91-19.99,4.29-29.75,7-.72.2-2.22.52-2.62,1.12l32.88-7.12c.73-.67.48-1.17-.5-1Z"/><path class="c" d="M135.68,114c.79-.23,3.81-.9,1.5-1.5-9.87,3.39-21.44,4.22-31.25,7.25-.5.16-1.35.24-1.38.88.1.47,5.77-.75,6.38-.88,7.69-1.59,17.3-3.59,24.75-5.75Z"/><path class="c" d="M137.93,116.5c.44-.18,1.12-.3,1.12-.88-.29-.21-.77-.13-1.12-.12l-31.75,7.25c-2.15,1.59,2.11.67,3,.5,6.61-1.24,23.15-4.46,28.75-6.75Z"/><path class="m" d="M135.93,109.75c-9.41,3.42-22.14,3.88-31.25,7.25-.42.15-1.13.32-1.12.88,11.05-1.95,22.5-4.65,33.25-7.75l-.88-.38Z"/><path class="n" d="M72.68,34c-.43.02-7.21,1.25-7.5,1.5-.15.13-.21,2.47-1.75,2.75-1.58.29-2.15-1.19-2.5-1.25-.66-.11-6.83,2.31-8.25,2-1.59,5.53-3.42,1.44-4.25,1.25-.28-.06-5.26,1.1-5.5,1.25-.46.29-.78,2.33-2,2.5-1.39.19-1.8-1.38-2.25-1.5-.38-.1-6.01,1.08-6.12,1.38l17.12,49.88,42.62-10.38-18.25-49.25c-.26-.22-1-.14-1.38-.12ZM38.31,50.38l32.62-8.12c1.5.16.21,1-.5,1.25-5.72,2.02-24.38,6.24-30.5,7-.35.04-1.5.4-1.62-.12ZM40.68,53c4.42-1.63,26.18-6.64,30.75-7,.35-.03,1.4-.21,1.38.38-10.89,2.9-22.2,5.55-33.25,7.5,0-.55.71-.72,1.12-.88ZM40.93,56l32.25-7.25.62.62-33.25,7.5.38-.88ZM79.68,70c-6.26,1.96-24.61,6.45-30.75,7-.49.04-1.17.07-1.62-.12l33.12-8.12c1.49.24-.03,1.02-.75,1.25ZM80.06,66.38l-2.62,1.12-31.12,6.62c-.16-.66,1.21-.99,1.62-1.12,4.73-1.52,26.77-6.83,31-7,.49-.02.81-.08,1.12.38ZM77.68,64.25c-5.84,1.91-24.94,6.48-30.75,7-.49.04-1.17.07-1.62-.12l33.12-8.12c1.74.16-.14,1.05-.75,1.25ZM78.31,60.63l-1.62.88-32.38,6.88.62-.88,32.25-7.25c.49,0,.81-.1,1.12.38ZM77.06,57.63c0,.55-.71.72-1.12.88-4.41,1.63-26.4,6.63-31,7-.49.04-1.17.07-1.62-.12.16-.72,1.53-.96,2.12-1.12,4.93-1.39,26.57-6.76,30.5-6.75.36,0,.83-.1,1.12.12ZM74.68,55.75c-10.27,2.89-21.23,3.99-31.5,7l-.88-.38c.1-.59,1.33-.72,1.88-.88,9.95-2.84,21.02-3.95,31-7,1.86.4.41.99-.5,1.25ZM74.68,52.5c-11.11,2.28-22.23,5.53-33.38,7.12.28-.79,1.48-.94,2.12-1.12,4.87-1.42,26.48-6.7,30.5-6.75.58,0,1.53.05.75.75Z"/><path class="am" d="M48.93,77c6.14-.55,24.49-5.04,30.75-7,.72-.23,2.24-1.01.75-1.25l-33.12,8.12c.45.19,1.14.17,1.62.12Z"/><path class="ao" d="M46.93,71.25c5.81-.52,24.91-5.09,30.75-7,.61-.2,2.49-1.09.75-1.25l-33.12,8.12c.45.19,1.14.17,1.62.12Z"/><path class="h" d="M44.31,68.38l32.38-6.88,1.62-.88c-.32-.47-.64-.38-1.12-.38l-32.25,7.25-.62.88Z"/><path class="aa" d="M45.43,64.25c-.6.17-1.97.4-2.12,1.12.45.2,1.13.16,1.62.12,4.6-.37,26.59-5.37,31-7,.42-.15,1.13-.32,1.12-.88-.29-.22-.76-.12-1.12-.12-3.93,0-25.57,5.36-30.5,6.75Z"/><path class="r" d="M47.93,73c-.41.13-1.78.47-1.62,1.12l31.12-6.62,2.62-1.12c-.31-.46-.64-.39-1.12-.38-4.23.17-26.27,5.48-31,7Z"/><path class="d" d="M43.43,58.5c-.65.19-1.85.34-2.12,1.12,11.15-1.59,22.26-4.85,33.38-7.12.78-.7-.17-.76-.75-.75-4.02.05-25.63,5.33-30.5,6.75Z"/><polygon class="d" points="73.18 48.75 40.93 56 40.56 56.88 73.81 49.38 73.18 48.75"/><path class="aj" d="M42.31,62.38l.88.38c10.27-3.01,21.23-4.11,31.5-7,.91-.26,2.36-.85.5-1.25-9.98,3.05-21.05,4.16-31,7-.54.15-1.77.28-1.88.88Z"/><path class="k" d="M70.43,43.5c.71-.25,2-1.09.5-1.25l-32.62,8.12c.12.52,1.28.17,1.62.12,6.12-.76,24.78-4.98,30.5-7Z"/><path class="l" d="M71.43,46c-4.57.36-26.33,5.37-30.75,7-.42.15-1.13.32-1.12.88,11.05-1.95,22.36-4.6,33.25-7.5.03-.58-1.03-.4-1.38-.38Z"/><path class="b" d="M73.43-16.75c-1.81.37-16.35,28.41-18.88,31.75.74.45,1.29,1.25,2.25,1.5,6.72-8.4,13.69-22.52,19.25-32.25-.47-.16-.84-.5-1.25-.75-.29.61-1-.33-1.38-.25Z"/><path class="ap" d="M70.31-19.25c-.38-.19-1.83-1.24-2-1.25-.85-.05-1.57,1.05-2,1.62-4.06,5.43-15.1,24.41-17.75,30.62.77.55,2,.82,2.75,1.25l19-32.25Z"/><path class="v" d="M56.81,16.5c-.96-.25-1.51-1.05-2.25-1.5-1-.61-2.29-1.46-3.25-2-.75-.43-1.98-.7-2.75-1.25-1.45,3.4-1.69,6.66-2.25,10.25l2.75,1.5c2.86-2.27,5.82-4.58,7.75-7Z"/><path class="f" d="M49.06,23.5l-2.75-1.5c-.08.49-1.21,4.08-.88,4.25,1.47-.48,2.51-1.87,3.62-2.75Z"/><path class="u" d="M73.43-16.75c.38-.08,1.09.86,1.38.25-1.49-.91-2.95-1.96-4.5-2.75L51.31,13c.96.54,2.25,1.39,3.25,2,2.52-3.34,17.06-31.38,18.88-31.75Z"/><path class="x" d="M73.43,111.25c-1.81.35-16.34,28.42-18.88,31.75.74.45,1.29,1.25,2.25,1.5,5.27-6.59,14.2-22.03,18.25-29.88.43-.83.95-1.64.5-2.62-.19-.02-.33-.19-.75-.25-.51-.07-1.14-.55-1.38-.5Z"/><path class="ap" d="M70.31,108.75c-.55-.29-1.72-1.25-2.25-1.25-.21,0-.42,0-.62,0-.25.62-.75,1.1-1.12,1.62-4.38,6.16-14.9,23.87-17.75,30.62.77.55,2,.82,2.75,1.25l19-32.25Z"/><path class="o" d="M70.81,103l8,4.75c4.95-3.67-7.88-10.96-8-4.75Z"/><path class="q" d="M68.06,106.75l8.5,5.25c.2-.14.2-.68.25-.75l-8.25-5s-.16-.25-.5.5Z"/><path class="af" d="M69.06,105.75l8,4.75c.19-.29.16-.32.25-.5l-8-5c-.47.75-.23.71-.25.75Z"/><path class="s" d="M69.56,104.5l8.25,5c.08-.18.18-.32.25-.5l-8-5s-.11-.05-.5.5Z"/><path class="ac" d="M70.06,104l8,5c.05-.12.89-.2.25-1l-8-4.75c-.98-.09-.19.68-.25.75Z"/><path class="ak" d="M69.31,105l8,5s.16.24.5-.5l-8.25-5c-.4.56-.22.46-.25.5Z"/><path class="j" d="M68.56,106.25l8.25,5c.55-.77.19-.66.25-.75l-8-4.75s-.11-.14-.5.5Z"/><path class="ai" d="M70.31,103.25l8,4.75c.48.15.46-.22.5-.25l-8-4.75-.5.25Z"/><path class="i" d="M68.06,107.5c.53,0,1.7.96,2.25,1.25,1.52.81,3.2,1.87,4.5,3,.42.06.56.23.75.25.49.06.31.48,1,0l-8.5-5.25c-.14.31-.42.21,0,.75Z"/><path class="u" d="M54.56,143c2.54-3.33,17.06-31.4,18.88-31.75.23-.05.86.43,1.38.5-1.3-1.13-2.98-2.19-4.5-3l-19,32.25c.96.54,2.25,1.39,3.25,2Z"/><path class="b" d="M9.43,47.25c-1.77.71-16.43,28.19-18.88,31.75.74.45,1.29,1.25,2.25,1.5,4.52-5.67,15.43-23.66,18.5-30.38.37-.82.65-1.2.25-2.12-.28-.04-.72-.45-1-.5-.26-.04-1.07-.27-1.12-.25Z"/><path class="ap" d="M2.31,45.13c-4.01,5.36-15.17,24.51-17.75,30.62.77.55,2,.82,2.75,1.25L6.31,44.75c-.38-.19-1.83-1.24-2-1.25-.85-.05-1.57,1.05-2,1.62Z"/><path class="o" d="M6.81,39l8,4.75c4.98-3.69-7.96-10.91-8-4.75Z"/><path class="af" d="M13.31,46l-8-5c-.12.2-.27.34-.5.75l8.25,4.75c.19-.29.16-.32.25-.5Z"/><path class="al" d="M12.81,47.25l-8.25-5s-.19-.26-.5.5l8.5,5.25c.2-.14.2-.68.25-.75Z"/><path class="s" d="M14.06,45l-8-5s-.12-.01-.5.5l8.25,5c.08-.18.18-.32.25-.5Z"/><path class="ad" d="M14.31,44l-8-4.75c-.98-.09-.19.68-.25.75l8,5c.05-.12.89-.2.25-1Z"/><path class="p" d="M13.06,46.5l-8.25-4.75c-.13.23-.18.37-.25.5l8.25,5c.54-.76.19-.66.25-.75Z"/><path class="ah" d="M13.81,45.5l-8.25-5c-.44.59-.18.38-.25.5l8,5s.16.24.5-.5Z"/><path class="t" d="M14.81,43.75l-8-4.75-.5.25,8,4.75c.48.15.46-.22.5-.25Z"/><path class="ae" d="M10.56,47.5c.28.05.72.46,1,.5.44.07.28.5,1,0l-8.5-5.25c-.17.43-.43.47.25.75.17,0,1.62,1.06,2,1.25,1.49.75,2.92,1.74,4.25,2.75Z"/><path class="u" d="M9.43,47.25c.05-.02.87.21,1.12.25-1.33-1.01-2.76-2-4.25-2.75l-19,32.25c.96.54,2.25,1.39,3.25,2,2.44-3.56,17.11-31.04,18.88-31.75Z"/></svg>